<svg width="160" height="161" viewBox="0 0 160 161" fill="none" xmlns="http://www.w3.org/2000/svg">
<rect y="0.5" width="160" height="160" rx="15" fill="#198754"/>
<path d="M72.464 45.8C73.68 47.016 74.288 48.584 74.288 50.504C74.288 52.104 73.936 53.736 73.232 55.4L56.048 90.248V113H48.08V92.36L28.88 45.8H37.04L55.376 89.096L72.08 55.4C72.784 53.8 73.136 52.136 73.136 50.408C73.136 48.68 72.656 47.336 71.696 46.376L72.464 45.8ZM89.9555 113H81.9875V45.8H89.9555V76.712H121.156V45.8H129.124V113H121.156V77.672H89.9555V113Z" fill="white"/>
</svg>
