<svg width="161" height="161" viewBox="0 0 161 161" fill="none" xmlns="http://www.w3.org/2000/svg">
<rect x="0.459473" y="0.791504" width="160" height="160" rx="15" fill="url(#paint0_linear_401_28)"/>
<path d="M46.9495 134.812C43.7961 136.792 40.9728 138.038 38.4795 138.552C36.0595 139.138 33.4195 139.432 30.5595 139.432C27.6995 139.432 25.2428 138.588 23.1895 136.902C21.2095 135.215 20.2195 132.978 20.2195 130.192C20.2195 127.405 21.1361 124.875 22.9695 122.602C24.8761 120.328 27.1495 118.532 29.7895 117.212C35.1428 114.425 40.0195 112.592 44.4195 111.712L47.2795 111.162C47.3528 110.868 47.7928 109.402 48.5995 106.762C49.4061 104.122 49.9928 102.068 50.3595 100.602C41.0461 106.175 33.3828 108.962 27.3695 108.962C23.7761 108.962 20.8061 107.825 18.4595 105.552C16.1128 103.205 14.9395 99.9048 14.9395 95.6515C14.9395 91.3248 16.3328 83.5882 19.1195 72.4415C21.9061 61.2215 23.2995 53.7415 23.2995 50.0015C23.2995 47.5815 22.1995 44.8315 19.9995 41.7515L18.8995 40.2115L19.2295 38.5615C23.6295 37.3148 30.4128 36.6915 39.5795 36.6915C40.6061 38.8915 41.1195 41.8615 41.1195 45.6015C41.1195 49.3415 39.7261 57.2615 36.9395 69.3615C34.1528 81.3882 32.7595 88.3548 32.7595 90.2615C32.7595 94.1482 34.0795 96.0915 36.7195 96.0915C41.7061 96.0915 47.0228 94.6615 52.6695 91.8015C57.1428 73.3948 60.1861 56.0148 61.7995 39.6615C65.5395 37.7548 70.6728 36.8015 77.1995 36.8015H79.2895C79.2895 40.6882 78.6295 46.0782 77.3095 52.9715C75.6228 61.6982 73.0195 74.8982 69.4995 92.5715C67.9595 100.492 65.9428 107.422 63.4495 113.362C60.9561 119.228 58.3895 123.775 55.7495 127.002C53.1095 130.228 50.1761 132.832 46.9495 134.812ZM30.5595 132.062C33.1261 132.062 35.8028 130.632 38.5895 127.772C41.3761 124.985 43.6495 121.648 45.4095 117.762C41.9628 118.128 38.0761 119.448 33.7495 121.722C29.4961 124.068 27.3695 126.452 27.3695 128.872C27.3695 129.752 27.6628 130.485 28.2495 131.072C28.9095 131.732 29.6795 132.062 30.5595 132.062ZM132.928 116.112C130.068 116.112 127.722 115.195 125.888 113.362C124.055 111.455 123.138 108.925 123.138 105.772C123.138 102.545 124.752 93.4882 127.978 78.6015C126.072 78.1615 122.992 77.9415 118.738 77.9415C114.485 77.9415 110.415 78.3082 106.528 79.0415C102.788 95.9082 100.808 107.202 100.588 112.922C97.9482 114.388 92.3749 115.122 83.8682 115.122H82.7682C82.9882 111.895 84.9316 102.252 88.5982 86.1915C92.3382 70.1315 94.6482 58.0682 95.5282 50.0015C95.5282 48.8282 95.1616 47.4348 94.4282 45.8215C93.6949 44.1348 92.9616 42.7782 92.2282 41.7515L91.0182 40.2115L91.3482 38.5615C95.6749 37.3148 102.532 36.6915 111.918 36.6915C112.798 38.1582 113.238 40.5415 113.238 43.8415C113.238 47.1415 111.588 56.2348 108.288 71.1215H129.518C132.085 58.0682 133.405 48.7548 133.478 43.1815C133.478 41.9348 133.405 40.9082 133.258 40.1015C139.125 37.8282 145.028 36.6915 150.968 36.6915C151.188 37.1315 151.298 38.2315 151.298 39.9915C151.298 44.0248 149.502 54.4015 145.908 71.1215C142.388 87.8415 140.628 98.4748 140.628 103.022C140.628 105.002 140.958 105.992 141.618 105.992C142.278 105.992 144.515 105.038 148.328 103.132L150.308 107.202C143.782 113.142 137.988 116.112 132.928 116.112Z" fill="white"/>
<defs>
<linearGradient id="paint0_linear_401_28" x1="80.4595" y1="0.791504" x2="80.4595" y2="160.792" gradientUnits="userSpaceOnUse">
<stop stop-color="#198754"/>
<stop offset="1" stop-color="#63D097"/>
</linearGradient>
</defs>
</svg>
